<?xml version="1.0" encoding="UTF-8" standalone="no"?>
<!-- Created with Inkscape (http://www.inkscape.org/) -->

<svg
   xmlns:dc="http://purl.org/dc/elements/1.1/"
   xmlns:cc="http://creativecommons.org/ns#"
   xmlns:rdf="http://www.w3.org/1999/02/22-rdf-syntax-ns#"
   xmlns:svg="http://www.w3.org/2000/svg"
   xmlns="http://www.w3.org/2000/svg"
   xmlns:sodipodi="http://sodipodi.sourceforge.net/DTD/sodipodi-0.dtd"
   xmlns:inkscape="http://www.inkscape.org/namespaces/inkscape"
   width="100"
   height="100"
   viewBox="0 0 26.458333 26.458334"
   version="1.1"
   id="svg8"
   inkscape:version="0.92.3 (2405546, 2018-03-11)"
   sodipodi:docname="schema2.svg">
  <defs
     id="defs2" />
  <sodipodi:namedview
     id="base"
     pagecolor="#ffffff"
     bordercolor="#666666"
     borderopacity="1.0"
     inkscape:pageopacity="0.0"
     inkscape:pageshadow="2"
     inkscape:zoom="4"
     inkscape:cx="57.564709"
     inkscape:cy="36.155115"
     inkscape:document-units="mm"
     inkscape:current-layer="layer1"
     showgrid="false"
     units="px"
     inkscape:window-width="1323"
     inkscape:window-height="744"
     inkscape:window-x="43"
     inkscape:window-y="24"
     inkscape:window-maximized="1" />
  <metadata
     id="metadata5">
    <rdf:RDF>
      <cc:Work
         rdf:about="">
        <dc:format>image/svg+xml</dc:format>
        <dc:type
           rdf:resource="http://purl.org/dc/dcmitype/StillImage" />
        <dc:title></dc:title>
      </cc:Work>
    </rdf:RDF>
  </metadata>
  <g
     inkscape:label="Layer 1"
     inkscape:groupmode="layer"
     id="layer1"
     transform="translate(0,-270.54165)">
    <rect
       style="fill:#003380;fill-opacity:1;stroke:none;stroke-width:0.43066546"
       id="rect815"
       width="13.898016"
       height="9.6217031"
       x="6.4812851"
       y="271.67633" />
    <g
       aria-label="tx"
       transform="matrix(1.0123511,0,0,0.98779958,0.26726953,-3.8754083)"
       style="font-style:normal;font-weight:normal;font-size:5.03018475px;line-height:1.25;font-family:sans-serif;letter-spacing:0px;word-spacing:0px;fill:#ffffff;fill-opacity:1;stroke:none;stroke-width:0.12575461"
       id="text819">
      <path
         d="m 8.1289525,280.09041 v 0.78105 h 0.9308789 v 0.35123 H 8.1289525 v 1.49334 q 0,0.33649 0.090877,0.43228 0.093333,0.0958 0.3757902,0.0958 h 0.4642114 v 0.37824 H 8.59562 q -0.5231589,0 -0.7221066,-0.19403 -0.1989477,-0.19649 -0.1989477,-0.71228 V 281.2227 H 7.3429861 v -0.35123 h 0.3315796 v -0.78105 z"
         style="fill:#ffffff;stroke-width:0.12575461"
         id="path821"
         inkscape:connector-curvature="0" />
      <path
         d="m 11.943346,280.87146 -0.994739,1.3386 1.046318,1.41228 h -0.532984 l -0.800703,-1.0807 -0.8007034,1.0807 H 9.3275512 l 1.0684228,-1.4393 -0.9775454,-1.31158 H 9.951412 l 0.729475,0.98 0.729475,-0.98 z"
         style="fill:#ffffff;stroke-width:0.12575461"
         id="path823"
         inkscape:connector-curvature="0" />
    </g>
    <rect
       style="fill:#6c5353;fill-opacity:1;stroke:none;stroke-width:0.43066546"
       id="rect815-3"
       width="13.898016"
       height="9.6217031"
       x="6.5481024"
       y="285.97491" />
    <g
       aria-label="tx"
       transform="matrix(1.0123511,0,0,0.98779957,0.33408792,10.423471)"
       style="font-style:normal;font-weight:normal;font-size:5.03018475px;line-height:1.25;font-family:sans-serif;letter-spacing:0px;word-spacing:0px;fill:#ffffff;fill-opacity:1;stroke:none;stroke-width:0.12575461"
       id="text819-6">
      <path
         d="m 8.1289525,280.09041 v 0.78105 h 0.9308789 v 0.35123 H 8.1289525 v 1.49334 q 0,0.33649 0.090877,0.43228 0.093333,0.0958 0.3757902,0.0958 h 0.4642114 v 0.37824 H 8.59562 q -0.5231589,0 -0.7221066,-0.19403 -0.1989477,-0.19649 -0.1989477,-0.71228 V 281.2227 H 7.3429861 v -0.35123 h 0.3315796 v -0.78105 z"
         style="fill:#ffffff;stroke-width:0.12575461"
         id="path821-7"
         inkscape:connector-curvature="0" />
      <path
         d="m 11.943346,280.87146 -0.994739,1.3386 1.046318,1.41228 h -0.532984 l -0.800703,-1.0807 -0.8007034,1.0807 H 9.3275512 l 1.0684228,-1.4393 -0.9775454,-1.31158 H 9.951412 l 0.729475,0.98 0.729475,-0.98 z"
         style="fill:#ffffff;stroke-width:0.12575461"
         id="path823-5"
         inkscape:connector-curvature="0" />
    </g>
    <g
       aria-label="header"
       transform="matrix(1.0498944,0,0,0.95247676,0,-0.53453904)"
       style="font-style:normal;font-weight:normal;font-size:3.04412723px;line-height:1.25;font-family:sans-serif;letter-spacing:0px;word-spacing:0px;fill:#ffffff;fill-opacity:1;stroke:none;stroke-width:0.07610317"
       id="text890">
      <path
         d="m 8.9285066,292.82903 v 1.0048 H 8.6550107 v -0.99588 q 0,-0.23634 -0.092156,-0.35376 -0.092156,-0.11743 -0.2764686,-0.11743 -0.2214722,0 -0.3493017,0.14121 -0.1278296,0.14121 -0.1278296,0.38498 v 0.94088 H 7.5342725 v -2.31282 h 0.2749822 v 0.9067 q 0.098102,-0.15013 0.2303905,-0.22445 0.1337751,-0.0743 0.3076828,-0.0743 0.2868733,0 0.4340259,0.17837 0.1471527,0.17688 0.1471527,0.52172 z"
         style="fill:#ffffff;stroke-width:0.07610317"
         id="path910"
         inkscape:connector-curvature="0" />
      <path
         d="m 10.900946,292.93308 v 0.13377 H 9.6434603 q 0.017837,0.28242 0.1694485,0.43106 0.1530982,0.14715 0.4251072,0.14715 0.157558,0 0.30471,-0.0387 0.148639,-0.0386 0.294306,-0.11593 v 0.25863 q -0.147153,0.0624 -0.301738,0.0951 -0.154584,0.0327 -0.313628,0.0327 -0.3983525,0 -0.6317157,-0.23188 -0.2318769,-0.23188 -0.2318769,-0.62726 0,-0.40875 0.2199857,-0.64806 0.2214722,-0.2408 0.5960429,-0.2408 0.335924,0 0.530641,0.21702 0.196203,0.21552 0.196203,0.58712 z m -0.273495,-0.0803 q -0.003,-0.22444 -0.126344,-0.35822 -0.121884,-0.13377 -0.324033,-0.13377 -0.2289037,0 -0.367138,0.12932 -0.1367479,0.12931 -0.1575574,0.36416 z"
         style="fill:#ffffff;stroke-width:0.07610317"
         id="path912"
         inkscape:connector-curvature="0" />
      <path
         d="m 12.106409,292.99699 q -0.331465,0 -0.459295,0.0758 -0.127829,0.0758 -0.127829,0.25863 0,0.14567 0.09513,0.23188 0.09661,0.0847 0.261604,0.0847 0.227418,0 0.364166,-0.16053 0.138234,-0.16201 0.138234,-0.42956 v -0.0609 z m 0.545505,-0.11296 v 0.9498 h -0.273496 v -0.25268 q -0.09364,0.15161 -0.233363,0.22444 -0.139721,0.0713 -0.34187,0.0713 -0.255659,0 -0.407271,-0.1427 -0.150125,-0.14418 -0.150125,-0.38497 0,-0.28093 0.187285,-0.42362 0.188772,-0.1427 0.561856,-0.1427 h 0.383488 v -0.0268 q 0,-0.18877 -0.124856,-0.29133 -0.123371,-0.10405 -0.347816,-0.10405 -0.142693,0 -0.277955,0.0342 -0.135261,0.0342 -0.260118,0.10256 v -0.25269 q 0.150125,-0.058 0.291332,-0.0862 0.141208,-0.0297 0.274983,-0.0297 0.361193,0 0.539559,0.18729 0.178367,0.18728 0.178367,0.5678 z"
         style="fill:#ffffff;stroke-width:0.07610317"
         id="path914"
         inkscape:connector-curvature="0" />
      <path
         d="m 14.312212,292.42176 v -0.90075 h 0.273496 v 2.31282 h -0.273496 v -0.24971 q -0.08621,0.14864 -0.218499,0.22147 -0.130803,0.0713 -0.315115,0.0713 -0.301737,0 -0.491995,-0.2408 -0.188772,-0.24079 -0.188772,-0.6332 0,-0.39241 0.188772,-0.6332 0.190258,-0.2408 0.491995,-0.2408 0.184312,0 0.315115,0.0728 0.132288,0.0713 0.218499,0.21998 z m -0.931967,0.58118 q 0,0.30174 0.123371,0.47416 0.124857,0.17093 0.34187,0.17093 0.217013,0 0.341869,-0.17093 0.124857,-0.17242 0.124857,-0.47416 0,-0.30174 -0.124857,-0.47267 -0.124856,-0.17242 -0.341869,-0.17242 -0.217013,0 -0.34187,0.17242 -0.123371,0.17093 -0.123371,0.47267 z"
         style="fill:#ffffff;stroke-width:0.07610317"
         id="path916"
         inkscape:connector-curvature="0" />
      <path
         d="m 16.573012,292.93308 v 0.13377 h -1.257487 q 0.01784,0.28242 0.169449,0.43106 0.153098,0.14715 0.425108,0.14715 0.157557,0 0.30471,-0.0387 0.148639,-0.0386 0.294305,-0.11593 v 0.25863 q -0.147153,0.0624 -0.301737,0.0951 -0.154585,0.0327 -0.313629,0.0327 -0.398352,0 -0.631716,-0.23188 -0.231876,-0.23188 -0.231876,-0.62726 0,-0.40875 0.219985,-0.64806 0.221472,-0.2408 0.596043,-0.2408 0.335924,0 0.530641,0.21702 0.196204,0.21552 0.196204,0.58712 z m -0.273496,-0.0803 q -0.003,-0.22444 -0.126343,-0.35822 -0.121884,-0.13377 -0.324033,-0.13377 -0.228905,0 -0.367139,0.12932 -0.136748,0.12931 -0.157557,0.36416 z"
         style="fill:#ffffff;stroke-width:0.07610317"
         id="path918"
         inkscape:connector-curvature="0" />
      <path
         d="m 17.986569,292.42473 q -0.04608,-0.0267 -0.101075,-0.0386 -0.05351,-0.0134 -0.118911,-0.0134 -0.231877,0 -0.356734,0.15161 -0.12337,0.15013 -0.12337,0.43254 v 0.87697 h -0.274982 v -1.66476 h 0.274982 v 0.25864 q 0.08621,-0.15162 0.224445,-0.22445 0.138234,-0.0743 0.335924,-0.0743 0.02824,0 0.06243,0.004 0.03419,0.003 0.0758,0.0104 z"
         style="fill:#ffffff;stroke-width:0.07610317"
         id="path920"
         inkscape:connector-curvature="0" />
    </g>
    <g
       aria-label="items"
       transform="matrix(1.0498944,0,0,0.95247675,0,1.0022607)"
       style="font-style:normal;font-weight:normal;font-size:3.04412723px;line-height:1.25;font-family:sans-serif;letter-spacing:0px;word-spacing:0px;fill:#ffffff;fill-opacity:1;stroke:none;stroke-width:0.07610317"
       id="text890-3">
      <path
         d="m 7.5126576,305.74677 h 0.2734958 v 1.66476 H 7.5126576 Z m 0,-0.64806 h 0.2734958 v 0.34633 H 7.5126576 Z"
         style="fill:#ffffff;stroke-width:0.07610317"
         id="path923"
         inkscape:connector-curvature="0" />
      <path
         d="m 8.6274503,305.2741 v 0.47267 h 0.5633419 v 0.21256 H 8.6274503 v 0.90372 q 0,0.20364 0.054996,0.26161 0.056483,0.058 0.2274177,0.058 h 0.2809278 v 0.2289 H 8.9098644 q -0.3166011,0 -0.4369987,-0.11743 -0.1203976,-0.11891 -0.1203976,-0.43105 v -0.90372 H 8.1518054 v -0.21256 h 0.2006627 v -0.47267 z"
         style="fill:#ffffff;stroke-width:0.07610317"
         id="path925"
         inkscape:connector-curvature="0" />
      <path
         d="m 10.975947,306.51078 v 0.13377 H 9.7184607 q 0.017837,0.28242 0.1694485,0.43106 0.1530978,0.14715 0.4251078,0.14715 0.157557,0 0.30471,-0.0387 0.148639,-0.0386 0.294305,-0.11594 v 0.25864 q -0.147153,0.0624 -0.301737,0.0951 -0.154585,0.0327 -0.313628,0.0327 -0.3983531,0 -0.6317163,-0.23187 -0.2318769,-0.23188 -0.2318769,-0.62726 0,-0.40876 0.2199857,-0.64806 0.2214722,-0.2408 0.5960425,-0.2408 0.335924,0 0.530641,0.21701 0.196204,0.21553 0.196204,0.58713 z m -0.273496,-0.0803 q -0.003,-0.22444 -0.126343,-0.35822 -0.121884,-0.13377 -0.324033,-0.13377 -0.228904,0 -0.3671386,0.12931 -0.1367479,0.12932 -0.1575573,0.36417 z"
         style="fill:#ffffff;stroke-width:0.07610317"
         id="path927"
         inkscape:connector-curvature="0" />
      <path
         d="m 12.720969,306.06635 q 0.102561,-0.18432 0.245254,-0.27201 0.142694,-0.0877 0.335924,-0.0877 0.260119,0 0.401326,0.18283 0.141207,0.18134 0.141207,0.51726 v 1.0048 h -0.274982 v -0.99588 q 0,-0.23931 -0.08473,-0.35525 -0.08472,-0.11594 -0.258631,-0.11594 -0.212554,0 -0.335925,0.14121 -0.12337,0.14121 -0.12337,0.38497 v 0.94089 H 12.49206 v -0.99588 q 0,-0.2408 -0.08472,-0.35525 -0.08473,-0.11594 -0.261605,-0.11594 -0.209581,0 -0.332952,0.1427 -0.12337,0.1412 -0.12337,0.38348 v 0.94089 h -0.274982 v -1.66476 h 0.274982 v 0.25863 q 0.09364,-0.15309 0.224445,-0.22593 0.130802,-0.0728 0.310656,-0.0728 0.181339,0 0.307682,0.0922 0.12783,0.0921 0.188772,0.26755 z"
         style="fill:#ffffff;stroke-width:0.07610317"
         id="path929"
         inkscape:connector-curvature="0" />
      <path
         d="m 15.452954,305.79582 v 0.25864 q -0.115938,-0.0595 -0.240795,-0.0892 -0.124857,-0.0297 -0.258632,-0.0297 -0.203635,0 -0.306196,0.0624 -0.101075,0.0624 -0.101075,0.18729 0,0.0951 0.07283,0.15012 0.07283,0.0535 0.292819,0.10256 l 0.09364,0.0208 q 0.291332,0.0624 0.413216,0.17688 0.123371,0.11297 0.123371,0.3166 0,0.23188 -0.184313,0.36714 -0.182826,0.13526 -0.503886,0.13526 -0.133775,0 -0.279441,-0.0267 -0.14418,-0.0253 -0.30471,-0.0773 v -0.28242 q 0.151611,0.0788 0.298764,0.11891 0.147153,0.0387 0.291333,0.0387 0.19323,0 0.297278,-0.0654 0.104047,-0.0669 0.104047,-0.18729 0,-0.11147 -0.07581,-0.17093 -0.07432,-0.0595 -0.328492,-0.11445 l -0.09513,-0.0223 q -0.254173,-0.0535 -0.367139,-0.1635 -0.112965,-0.11148 -0.112965,-0.30471 0,-0.23485 0.166475,-0.36268 0.166476,-0.12783 0.472673,-0.12783 0.151611,0 0.285386,0.0223 0.133776,0.0223 0.246741,0.0669 z"
         style="fill:#ffffff;stroke-width:0.07610317"
         id="path931"
         inkscape:connector-curvature="0" />
    </g>
    <path
       style="fill:none;stroke:#000000;stroke-width:0.465;stroke-linecap:butt;stroke-linejoin:miter;stroke-opacity:1;stroke-miterlimit:4;stroke-dasharray:none"
       d="m 13.383046,281.36066 -0.04319,4.55574"
       id="path934"
       inkscape:connector-curvature="0"
       sodipodi:nodetypes="cc" />
    <path
       style="fill:none;stroke:#000000;stroke-width:0.465;stroke-linecap:butt;stroke-linejoin:miter;stroke-miterlimit:4;stroke-dasharray:none;stroke-opacity:1"
       d="m 11.274113,285.87379 2.096794,-2.02831 2.0264,2.00421"
       id="path936"
       inkscape:connector-curvature="0"
       sodipodi:nodetypes="ccc" />
  </g>
</svg>
