<?xml version="1.0" encoding="UTF-8" standalone="no"?>
<!-- Created with Inkscape (http://www.inkscape.org/) -->

<svg
   xmlns:dc="http://purl.org/dc/elements/1.1/"
   xmlns:cc="http://creativecommons.org/ns#"
   xmlns:rdf="http://www.w3.org/1999/02/22-rdf-syntax-ns#"
   xmlns:svg="http://www.w3.org/2000/svg"
   xmlns="http://www.w3.org/2000/svg"
   xmlns:sodipodi="http://sodipodi.sourceforge.net/DTD/sodipodi-0.dtd"
   xmlns:inkscape="http://www.inkscape.org/namespaces/inkscape"
   width="210mm"
   height="297mm"
   viewBox="0 0 210 297"
   version="1.1"
   id="svg8"
   inkscape:version="0.92.3 (2405546, 2018-03-11)"
   sodipodi:docname="pijar.svg">
  <defs
     id="defs2" />
  <sodipodi:namedview
     id="base"
     pagecolor="#ffffff"
     bordercolor="#666666"
     borderopacity="1.0"
     inkscape:pageopacity="0.0"
     inkscape:pageshadow="2"
     inkscape:zoom="0.98994949"
     inkscape:cx="189.62492"
     inkscape:cy="758.25155"
     inkscape:document-units="mm"
     inkscape:current-layer="layer1"
     showgrid="false"
     inkscape:window-width="1879"
     inkscape:window-height="1025"
     inkscape:window-x="41"
     inkscape:window-y="27"
     inkscape:window-maximized="1" />
  <metadata
     id="metadata5">
    <rdf:RDF>
      <cc:Work
         rdf:about="">
        <dc:format>image/svg+xml</dc:format>
        <dc:type
           rdf:resource="http://purl.org/dc/dcmitype/StillImage" />
        <dc:title></dc:title>
      </cc:Work>
    </rdf:RDF>
  </metadata>
  <g
     inkscape:label="Layer 1"
     inkscape:groupmode="layer"
     id="layer1">
    <g
       id="g901"
       inkscape:export-filename="/home/agung/pijar.png"
       inkscape:export-xdpi="96"
       inkscape:export-ydpi="96">
      <rect
         y="31.471725"
         x="4.1577382"
         height="71.4375"
         width="163.28571"
         id="rect863"
         style="opacity:1;fill:#214478;fill-opacity:1;stroke:none;stroke-width:0.38128543;stroke-miterlimit:4;stroke-dasharray:none" />
      <g
         style="fill:#ffcc00"
         transform="translate(-16.252977,2.078869)"
         id="g871">
        <path
           style="fill:#ffcc00;stroke:none;stroke-width:0.23771529px;stroke-linecap:butt;stroke-linejoin:miter;stroke-opacity:1"
           d="m 32.978422,72.233475 c 0,0 -5.074143,-3.698731 -4.819196,-6.102161 0.323385,-3.0486 4.194023,-5.539065 7.654019,-6.788654 6.411854,-2.315664 15.65393,-1.60127 21.072172,-0.152555 6.352261,1.69845 4.746652,6.884203 2.827122,9.892879 -2.949225,4.622626 -17.851676,5.972743 -17.851676,5.972743 1.551112,0.312066 3.169239,0.380699 4.606585,1.106017 0,0 0.70985,4.86764 0.307105,7.303525 -2.183223,0.193305 -7.843006,1.353917 -7.843006,1.353917 0,0 6.667816,-0.06919 8.598958,0.839048 1.869729,0.77385 2.466677,-1.237185 2.55134,-2.192965 0.415599,-2.199487 0.09449,-7.494218 0.09449,-7.494218 0,0 9.088759,-2.608323 11.390704,-5.497366 3.161143,-3.967373 8.075136,-10.776562 0.04308,-13.724445 -6.451774,-2.367894 -17.970371,-2.54827 -25.607887,0.53394 -4.131596,1.667355 -8.506845,5.043943 -8.598959,8.771858 -0.06294,2.547394 5.575149,6.178437 5.575149,6.178437 z"
           id="path815"
           inkscape:connector-curvature="0"
           sodipodi:nodetypes="caasacccccccssaacc" />
        <path
           style="fill:#ffcc00;stroke:none;stroke-width:0.26458332px;stroke-linecap:butt;stroke-linejoin:miter;stroke-opacity:1"
           d="m 43.128245,66.907222 c 1.324519,-4.55477 2.908445,-1.332294 3.376652,-0.204157 1.346025,-4.401813 2.808988,-1.349638 2.983506,-0.314867 3.419768,-3.333388 2.065815,3.562233 0.758267,4.936094 0.424643,-1.319118 0.795409,-6.050471 -1.135895,-3.30746 -0.890898,-2.294066 -1.759524,-2.294061 -2.605878,0 -1.77372,-3.101845 -2.431892,-1.526968 -3.0736,0.11693 -3.055588,-2.908099 -2.209809,1.33484 -1.436573,2.664344 -2.414844,-1.88589 -1.800851,-7.262421 1.133521,-3.890884 z"
           id="path836"
           inkscape:connector-curvature="0"
           sodipodi:nodetypes="ccccccccc" />
        <path
           style="font-style:normal;font-variant:normal;font-weight:bold;font-stretch:normal;font-size:medium;line-height:1.25;font-family:Purisa;-inkscape-font-specification:'Purisa Bold';letter-spacing:-1.63407052px;word-spacing:0px;fill:#ffcc00;fill-opacity:1;stroke:none;stroke-width:0.54724866"
           d="m 56.703834,76.458042 c 0.345181,-0.125861 0.68021,-0.188791 1.005087,-0.188791 0.324877,0 0.598991,0.06817 0.822344,0.204523 0.324877,0.314652 0.58884,1.227141 0.791887,2.737466 0.223353,1.510326 -0.08525,1.936366 0.134577,3.162976 0.200203,1.11709 1.574589,4.06063 1.529615,4.13846 -0.364043,-0.0777 -3.870216,-1.43098 -3.88066,-1.97763 -0.502427,-1.48746 -0.514527,-0.82429 -0.73788,-2.83806 -0.203048,-2.02426 -0.304572,-3.377258 -0.304572,-4.058999 0,-0.639793 0.213201,-1.033108 0.639602,-1.179945 z"
           id="path857"
           inkscape:connector-curvature="0"
           sodipodi:nodetypes="csccscccsc" />
        <path
           inkscape:connector-curvature="0"
           id="path844"
           style="font-style:normal;font-variant:normal;font-weight:bold;font-stretch:normal;font-size:medium;line-height:1.25;font-family:Purisa;-inkscape-font-specification:'Purisa Bold';letter-spacing:-1.63407052px;word-spacing:0px;fill:#ffcc00;fill-opacity:1;stroke:none;stroke-width:0.65420306"
           d="m 66.839864,91.995515 q 0.182744,0 0.365487,-0.337236 0.182743,-0.337247 0.335029,-1.371469 0.152286,-1.034223 0.152286,-2.630522 0,-3.687219 -0.426401,-4.766397 -1.492403,-3.55233 -1.492403,-6.092911 0,-0.51711 0.213201,-0.696975 0.2132,-0.202349 1.035545,-0.202349 0.883258,0 1.096459,0.382214 0.243658,0.359729 0.76143,2.24831 1.370573,5.036194 1.370573,8.296244 0,0.494627 -0.06091,1.663738 -0.06092,1.326503 -0.152285,2.090929 -0.09137,0.764425 -0.33503,1.46139 -0.2132,0.71946 -0.54823,1.034223 -0.304571,0.337247 -0.944172,0.584561 -0.609144,0.247314 -1.401032,0.314763 -0.761429,0.06748 -1.979717,0.06748 -1.64469,0 -2.61932,-0.179863 -0.97463,-0.157383 -1.187831,-0.359731 -0.213201,-0.202347 -0.335029,-0.427178 -0.121829,-0.202349 -0.243658,-0.224831 -0.395943,-0.08997 -0.578687,-0.382214 -0.152286,-0.292279 -0.152286,-1.146627 0,-1.236571 0.395944,-1.821132 0.426401,-0.584559 0.97463,-0.584559 0.54823,0 0.852803,0.696975 0.335028,0.71946 0.365486,1.438919 l 0.06091,0.696965 q 0.2132,0.112412 1.30966,0.202349 1.126916,0.112411 2.101546,0.112411 0.700516,0 1.066002,-0.06748 z M 64.464202,71.131251 q 0,-0.517108 0.578687,-0.809387 0.578687,-0.314764 1.157374,-0.314764 0.426402,0 0.974631,0.292281 0.578687,0.292279 0.578687,0.899318 0,0.584561 -0.395945,0.876842 -0.395943,0.269797 -0.944172,0.269797 -0.700516,0 -1.340118,-0.359731 -0.609144,-0.382212 -0.609144,-0.854356 z" />
        <path
           inkscape:connector-curvature="0"
           id="path846"
           style="font-style:normal;font-variant:normal;font-weight:bold;font-stretch:normal;font-size:medium;line-height:1.25;font-family:Purisa;-inkscape-font-specification:'Purisa Bold';letter-spacing:-1.63407052px;word-spacing:0px;fill:#ffcc00;fill-opacity:1;stroke:none;stroke-width:0.54724866"
           d="m 83.062122,82.930205 q 0,-0.188791 1.005089,-0.629304 1.005087,-0.440512 1.035545,-0.566373 0,-0.06296 -0.182744,-0.173059 -0.182744,-0.110128 -0.97463,-0.251721 -0.76143,-0.141594 -2.010176,-0.141594 -1.340117,0 -2.345204,0.204524 -0.97463,0.204524 -1.461945,0.503443 -0.487315,0.29892 -0.700516,0.550641 -0.213201,0.251722 -0.213201,0.440513 0,0.314652 0.09137,0.409048 0.121829,0.07866 0.578687,0.188791 0.700515,0.141593 1.126916,0.141593 0.670058,0 1.675146,-0.173058 1.005088,-0.173059 1.705603,-0.330385 z m 5.482297,1.00688 q -0.06091,0.361849 -0.548229,0.629304 -0.456858,0.251721 -0.761431,0.251721 -0.182744,0 -0.365486,-0.03148 -0.152286,-0.03148 -0.304572,-0.110129 -0.12183,-0.0944 -0.243657,-0.157326 -0.09137,-0.07866 -0.182744,-0.220256 -0.06091,-0.141593 -0.121829,-0.220256 -0.06091,-0.0944 -0.121829,-0.267447 -0.06091,-0.173059 -0.09137,-0.251722 0,-0.07866 -0.06091,-0.251722 -0.06092,-0.173058 -0.06092,-0.220256 -0.974631,0.582106 -2.893434,1.13274 -1.888347,0.534908 -3.228464,0.534908 -0.852801,0 -2.040632,-0.141593 -1.187831,-0.141593 -1.73606,-0.346117 -0.944174,-0.361843 -0.944174,-1.541788 0,-0.692234 0.76143,-1.195677 0.761431,-0.503444 2.741148,-1.00688 2.223377,-0.582106 4.172637,-0.582106 0.852802,0 1.401031,0.110128 0.578687,0.110129 0.883258,0.267455 0.33503,0.141593 0.365488,0.141593 0.487315,0.04722 0.852801,0.204524 0,-1.038352 -0.182744,-1.730586 -0.152285,-0.707967 -0.456858,-1.038352 -0.304571,-0.330377 -0.609144,-0.456238 -0.304571,-0.125861 -0.730972,-0.125861 -1.461946,0 -3.167549,0.29892 -1.675146,0.298912 -3.04572,0.613564 -1.340118,0.298919 -1.94926,0.298919 -0.761431,0 -0.761431,-0.36185 0,-0.220256 0.182744,-0.393307 0.182742,-0.188792 0.4264,-0.314652 0.274114,-0.125861 0.822344,-0.251722 0.578687,-0.141593 1.035546,-0.220256 0.487315,-0.0944 1.40103,-0.251722 0.913717,-0.173058 1.583776,-0.298919 1.82743,-0.330385 3.198005,-0.330385 2.467034,0 3.685322,1.195678 0.548229,0.534908 0.639601,0.975414 0.121829,0.440512 0.182742,2.564413 0.06091,1.998033 0.274116,3.099308 z" />
        <path
           inkscape:connector-curvature="0"
           id="path848"
           style="font-style:normal;font-variant:normal;font-weight:bold;font-stretch:normal;font-size:medium;line-height:1.25;font-family:Purisa;-inkscape-font-specification:'Purisa Bold';letter-spacing:-1.63407052px;word-spacing:0px;fill:#ffcc00;fill-opacity:1;stroke:none;stroke-width:0.38845012"
           d="m 101.72371,76.732037 c 0.32165,0 0.60097,0.02852 0.83797,0.08557 0.237,0.05071 0.38936,0.101416 0.45707,0.152125 0.0846,0.05071 0.12697,0.09508 0.12697,0.133108 0,0.126768 -0.38935,0.244029 -1.16807,0.351785 -1.03264,0.145786 -2.158387,0.503913 -3.377241,1.074381 -1.201914,0.570464 -2.459061,0.944548 -2.71299,1.445292 -0.321643,0.640189 0.215253,4.396238 -0.0048,4.60541 -0.22007,0.21551 -0.541713,0.323265 -0.964928,0.323265 -0.169286,0 -0.321643,-0.0095 -0.457071,-0.02854 -0.118496,-0.01269 -0.220072,-0.0412 -0.304714,-0.08557 -0.08464,-0.04437 -0.152365,-0.0824 -0.203144,-0.114093 -0.05079,-0.03169 -0.101577,-0.0824 -0.152365,-0.152125 -0.03385,-0.07606 -0.05925,-0.12994 -0.07618,-0.161633 0,-0.03803 -0.01692,-0.09825 -0.05079,-0.180648 -0.01693,-0.08874 -0.02539,-0.142615 -0.02539,-0.161628 -0.406286,-1.483213 -0.887965,-5.898579 -0.887965,-6.906403 0,-0.209171 0.03385,-0.370804 0.101577,-0.484898 0.06771,-0.120431 0.237,-0.225017 0.507857,-0.313757 0.169286,-0.05705 0.355499,-0.08557 0.558643,-0.08557 0.220071,0 0.406284,0.03486 0.558641,0.104585 0.152365,0.06339 0.228538,0.148956 0.228538,0.256711 0,0.234526 0.08464,0.567297 0.253929,0.998314 0.186214,0.424682 0.355499,0.757455 0.507856,0.998319 0.13543,-0.06972 0.330107,-0.177479 0.584035,-0.323265 0.643287,-0.392989 1.540497,-0.744776 2.691631,-1.055361 1.151134,-0.316926 2.141461,-0.47539 2.970951,-0.47539 z"
           sodipodi:nodetypes="cccsccccscccccccsccscscccccc" />
      </g>
      <text
         transform="scale(1.1807956,0.84688664)"
         id="text861"
         y="111.66902"
         x="49.495625"
         style="font-style:normal;font-weight:normal;font-size:7.46819353px;line-height:1.25;font-family:sans-serif;letter-spacing:0px;word-spacing:0px;fill:#939dac;fill-opacity:1;stroke:none;stroke-width:0.18670483;"
         xml:space="preserve"><tspan
           style="fill:#939dac;stroke-width:0.18670483;"
           y="111.66902"
           x="49.495625"
           id="tspan859"
           sodipodi:role="line">payroll</tspan></text>
      <rect
         transform="scale(1,-1)"
         style="opacity:1;fill:#ffcc00;fill-opacity:1;stroke:none;stroke-width:0.03877235;stroke-miterlimit:4;stroke-dasharray:none"
         id="rect888"
         width="163.28571"
         height="0.73870331"
         x="4.1577382"
         y="-103.64793" />
    </g>
  </g>
</svg>
